<svg width="187" height="216" viewBox="0 0 187 216" fill="none" xmlns="http://www.w3.org/2000/svg">
<circle cx="172.852" cy="150.707" r="1.84539" fill="#FF0038"/>
<circle cx="1.84539" cy="42.4441" r="1.84539" fill="#FF0038"/>
<circle cx="182.079" cy="47.9802" r="3.69079" fill="#FF0038"/>
<circle cx="15.9932" cy="188.23" r="2.46053" fill="#FF0038"/>
<circle cx="131.638" cy="29.5262" r="1.23026" fill="#FF0038"/>
<circle cx="113.184" cy="211.605" r="3.69079" fill="#FF0038"/>
<circle cx="185.77" cy="110.724" r="1.23026" fill="#FF0038"/>
<circle cx="1.23026" cy="129.178" r="1.23026" fill="#FF0038"/>
<circle cx="101.497" cy="3.07566" r="3.07566" fill="#FF0038"/>
<circle cx="153.783" cy="49.2105" r="2.46053" fill="#FF0038"/>
<circle cx="79.352" cy="197.457" r="1.84539" fill="#FF0038"/>
<circle cx="15.9933" cy="140.25" r="3.69079" fill="#FF0038"/>
<path d="M38.1379 54.1315L164.855 167.316" stroke="#FF0038" stroke-width="3.05384" stroke-linecap="round"/>
<path d="M83.0239 67.6315C79.3384 68.3122 70.7612 66.8146 65.9365 55.378C63.2058 55.2573 59.2046 55.7864 54.7467 57.5012M83.0239 144.216H52.8697V87.0329L45.8337 95.202L30.7566 81.9273C33.3524 75.9938 36.5398 71.3067 39.9628 67.6315M81.0137 67.6315C84.6992 68.3122 93.2764 66.8146 98.1011 55.378C105.807 55.0376 123.632 59.8709 133.281 81.9273" stroke="black" stroke-width="3.05384" stroke-linecap="round" stroke-linejoin="round"/>
<path d="M151.927 147.016L146.093 88.6781H94.8312L94.103 95.9604M153.404 164.24L153.783 165.571H125.955L123.309 136.559M92.6267 110.724L87.1419 165.571H114.97L118.105 135.944M119.186 119.335L120.462 105.338L122.411 119.951" stroke="black" stroke-width="3.05384" stroke-linecap="round" stroke-linejoin="round"/>
</svg>
